<svg width="98" height="40" viewBox="0 0 98 40" fill="none" xmlns="http://www.w3.org/2000/svg">
<path d="M0 8.55085V40H16.4355V5.05784L0 8.55085Z" fill="white"/>
<path d="M23.8 3.49277V24.8578C23.8 35.5505 34.4283 40 47.5401 40H61.498L56.8668 29.517H49.3663C44.3261 29.517 40.2355 28.7715 40.2355 23.693V19.0339H52.1022V18.7319L47.6045 8.55085H40.2355V0L23.8 3.49277Z" fill="white"/>
<path d="M74.2191 40H69.7651L65.1339 29.517H72.3929C77.4331 29.517 81.5237 28.7715 81.5237 23.693V19.0339H74.2816L69.666 8.55086L97.9592 8.55085V24.8578C97.9592 35.5505 87.3309 40 74.2191 40Z" fill="white"/>
</svg>
