<svg width="20" height="20" viewBox="0 0 20 20" fill="none" xmlns="http://www.w3.org/2000/svg">
<path fill-rule="evenodd" clip-rule="evenodd" d="M2 9C2 5.13401 5.13401 2 9 2C12.866 2 16 5.13401 16 9C16 10.753 15.3556 12.3556 14.2907 13.5836L17.4799 16.7728C17.6752 16.9681 17.6752 17.2847 17.4799 17.4799C17.2847 17.6752 16.9681 17.6752 16.7728 17.4799L13.5836 14.2907C12.3556 15.3556 10.753 16 9 16C5.13401 16 2 12.866 2 9ZM9 15C5.68629 15 3 12.3137 3 9C3 5.68629 5.68629 3 9 3C12.3137 3 15 5.68629 15 9C15 12.3137 12.3137 15 9 15Z" fill="#858585"/>
</svg>
